<svg xmlns="http://www.w3.org/2000/svg" xmlns:xlink="http://www.w3.org/1999/xlink" version="1.1" id="Layer_1" x="0" y="0" width="248.5" height="47.58" viewBox="0 0 248.5 47.58" enable-background="new 0 0 248.499 47.581" xml:space="preserve">
  <path d="M41.43 36.7c0-6.94 5.06-10.41 15.17-10.41 2.37 0 4.75 0.22 7.12 0.66v-2.63c0-3.13-2.25-4.69-6.75-4.69 -3.81 0-8.05 0.56-12.71 1.66v-6.98c4.66-1.11 8.9-1.66 12.71-1.66 10.38 0 15.57 3.84 15.57 11.51v23.42h-5.12l-3.12-3.13c-3.04 2.09-6.39 3.13-10.05 3.13C45.7 47.58 41.43 43.95 41.43 36.7zM56.6 32.28c-4.24 0-6.35 1.44-6.35 4.33 0 3.1 1.77 4.66 5.32 4.66 2.93 0 5.65-0.91 8.15-2.73v-5.59C61.5 32.5 59.13 32.28 56.6 32.28z"/>
  <path d="M78.65 6.99h8.97l0.02 5.66h7.64v6.98h-7.82v16.07c0 3.26 1.41 4.89 4.22 4.89h3.59v6.98h-7.85c-5.85 0-8.78-3.14-8.78-9.41V6.99z"/>
  <path d="M97.9 36.7c0-6.94 5.05-10.41 15.17-10.41 2.38 0 4.75 0.23 7.12 0.67v-2.63c0-3.13-2.25-4.69-6.75-4.69 -3.82 0-8.05 0.56-12.71 1.66v-6.98c4.66-1.11 8.89-1.66 12.71-1.66 10.38 0 15.57 3.84 15.57 11.51v23.42h-5.12l-3.13-3.13c-3.04 2.09-6.39 3.13-10.05 3.13C102.17 47.58 97.9 43.96 97.9 36.7zM113.07 32.28c-4.24 0-6.35 1.44-6.35 4.32 0 3.1 1.77 4.66 5.32 4.66 2.93 0 5.64-0.91 8.15-2.73v-5.59C117.97 32.5 115.6 32.28 113.07 32.28z"/>
  <path fill="#E64812" d="M177.97 0v47.57h-8.81V0H177.97z"/>
  <path fill="#E64812" d="M197.62 12.64c10.6 0 15.9 5.41 15.9 16.23 0 1.44-0.1 2.88-0.3 4.32h-23.19c0 4.92 3.62 7.39 10.84 7.39 3.53 0 7.05-0.33 10.58-1v6.98c-3.08 0.67-6.83 1-11.24 1 -12.66 0-18.99-5.95-18.99-17.86C181.22 18.33 186.69 12.64 197.62 12.64zM190.03 27.08h14.9V26.81c0-4.83-2.44-7.25-7.32-7.25C192.96 19.56 190.44 22.06 190.03 27.08z"/>
  <path fill="#E64812" d="M225.65 30.11L212.58 12.64h9.81l8.15 10.91 8.15-10.91h9.81L235.46 30.11l13.04 17.46h-9.81l-8.15-10.91 -8.15 10.91h-9.81L225.65 30.11z"/>
  <path fill="#E64812" d="M164.65 0.01h-15.56c-9.73 0-14.59 4.48-14.59 13.43V25.13v22.45h8.85V27.5h21.29v-7.9h-21.28v-5.91c0-3.94 2.34-5.93 6.29-5.93h14.99V0.01z"/>
  <path d="M13.49 39.93H0v7.64h14.53c15.75 0 23.62-8.36 23.62-25.08C38.15 7.5 30.27 0 14.53 0H0v35.17h8.81V7.65h5.71c9.87 0 14.81 4.94 14.81 14.83 0 11.62-4.94 17.43-14.8 17.43L13.49 39.93z"/>
</svg>
